<?xml version="1.0" encoding="UTF-8"?>
<!DOCTYPE svg PUBLIC "-//W3C//DTD SVG 1.1//EN" "http://www.w3.org/Graphics/SVG/1.1/DTD/svg11.dtd">
<!-- Creator: CorelDRAW 2021 (64-Bit) -->
<svg xmlns="http://www.w3.org/2000/svg" xml:space="preserve" width="270.332mm" height="58.3352mm" version="1.1" style="shape-rendering:geometricPrecision; text-rendering:geometricPrecision; image-rendering:optimizeQuality; fill-rule:evenodd; clip-rule:evenodd"
viewBox="0 0 7422.82 1601.78"
 xmlns:xlink="http://www.w3.org/1999/xlink"
 xmlns:xodm="http://www.corel.com/coreldraw/odm/2003">
 <defs>
  <style type="text/css">
   <![CDATA[
    .fil0 {fill:#FEFEFE}
   ]]>
  </style>
 </defs>
 <g id="Capa_x0020_1">
  <metadata id="CorelCorpID_0Corel-Layer"/>
  <path class="fil0" d="M664.48 1309.56c-4.84,-2.41 -9.65,-21.76 -12.1,-26.57l-159.46 -403.48c-2.41,-4.84 -2.41,-9.65 -4.84,-14.5 -2.41,-4.84 -4.84,-9.65 -4.84,-14.51 7.25,-4.84 12.09,-9.65 19.31,-14.5 2.41,-2.41 4.84,-4.84 9.65,-7.25l9.65 -7.25c12.09,-12.09 26.57,-24.16 38.66,-38.66l12.09 -14.5c21.76,-26.57 36.25,-55.57 50.72,-84.58 26.57,-55.57 43.47,-132.89 43.47,-195.71 0,-62.82 -2.41,-94.23 -19.31,-154.6 -2.41,-7.25 -4.84,-14.5 -7.25,-21.76 -9.65,-24.16 -16.91,-43.47 -29,-67.66 -14.51,-26.57 -31.41,-53.17 -48.31,-74.88l-26.57 -29c-12.09,-14.51 -41.06,-38.66 -57.98,-53.17l-16.91 -12.09c-4.84,-4.84 -12.09,-7.25 -16.9,-12.09 -4.84,-2.41 -12.09,-7.25 -16.91,-9.65 -26.57,-16.91 -67.66,-31.41 -99.04,-38.66 -72.48,-19.31 -123.19,-16.91 -195.71,0 -9.65,2.41 -19.31,4.84 -29,7.25 -9.65,2.41 -16.9,4.84 -26.57,9.65 -21.76,7.25 -43.47,16.9 -65.23,26.57 -4.84,2.41 -9.65,4.84 -12.09,4.84 14.51,26.57 26.57,53.17 41.06,79.72 4.84,9.65 38.66,72.48 41.06,79.72 4.84,0 26.57,-12.09 31.41,-14.51l24.16 -9.65c2.41,0 4.84,-2.41 9.65,-2.41 48.31,-16.9 91.83,-24.16 142.54,-7.25 24.16,7.25 45.9,16.9 67.66,31.41 12.1,9.65 26.57,19.31 36.25,29 2.41,2.41 4.84,4.84 9.65,9.65l7.25 9.65c45.92,50.72 72.48,128.05 72.48,195.71 0,16.9 -2.41,43.47 -4.84,57.96 -7.25,41.06 -19.31,79.72 -43.47,115.98 -4.84,7.25 -9.65,12.09 -14.51,19.31 -2.41,2.41 -4.84,4.84 -7.25,7.25 -9.65,12.09 -29,26.57 -43.47,36.25 -33.82,19.31 -55.57,24.16 -94.23,31.41 -7.25,2.41 -19.31,4.84 -26.57,4.84l108.73 287.49c7.25,19.31 14.51,38.66 21.76,57.98 7.25,19.31 14.51,36.25 21.76,55.57 7.25,19.31 14.51,38.66 21.76,57.98 7.25,19.31 14.51,38.66 21.76,55.57 2.41,9.65 7.25,19.31 12.09,29l101.48 256.08c4.84,9.65 7.25,19.31 12.09,26.57 7.25,7.25 12.09,14.5 19.31,19.31 4.84,2.41 7.25,4.84 12.09,7.25 19.31,9.65 38.66,12.09 62.82,12.09 31.41,0 67.66,-29 77.32,-55.57 14.5,-31.41 26.57,-65.23 38.66,-96.64 26.57,-65.23 50.72,-128.05 77.32,-193.26 55.57,-140.14 471.11,-1188.64 495.26,-1256.31 0,0 -181.2,0 -181.2,0 -161.87,432.44 -343.07,864.93 -509.77,1294.96 -2.41,4.84 -2.41,7.25 -4.84,12.09l7.19 2.48 0.06 0.03zm1030.82 -812.15l83.6 0c27.27,-0.9 51.36,-5.88 72.03,-14.7 20.75,-8.85 38.06,-21.58 51.69,-37.94l0.07 -0.09c14.58,-16.39 25.05,-34.13 31.86,-52.98 6.82,-18.87 10,-38.93 10,-59.93 0,-23.75 -3.64,-45.65 -11.16,-65.93 -7.52,-20.28 -18.92,-38.97 -34.41,-56.26 -15.37,-17.19 -35.3,-30.33 -59.53,-39.42 -24.51,-9.19 -53.44,-14.25 -86.54,-15.17l-163.78 0.01 0 743.15 -83.01 0 0 -826.18c48.82,0 227.8,-7.06 261.74,0.01 40.72,0.94 77.65,7.63 110.28,20.3 32.13,12.47 60.09,30.73 83.43,55 24.49,24.48 42.86,52.28 55.12,83.62 12.24,31.3 18.35,66.08 18.35,104.59 0,27.82 -3.92,55.17 -12.26,81.79 -8,25.52 -20.06,50.36 -36.63,74.3 -17.02,25.55 -38.32,45.42 -64.11,59.85 -24.38,13.64 -52.76,22.41 -85.33,26.49l201.07 322.08c-34.27,0 -68.55,0.05 -102.83,-0 -80.95,-132.12 -162.1,-264.12 -243,-396.27l-0.08 -3.51 1.13 -2.81 2.31 0zm897.06 -422.04l0 79.58 -347.42 0 0 286.68 347.42 0 0 83.01 -347.42 0 0 292.26 347.42 0 0 81.17 -430.45 0 0 -826.18 430.45 0 0 3.47zm130.35 822.75l-84.88 0c106.87,-275.36 213.64,-550.76 320.36,-826.18l99.4 0c107.02,275.3 213.63,550.77 320.36,826.18l-92.83 0 -96.61 -256.38 -365 0 -98.47 256.38 -2.34 0zm284.27 -740.61l-152.97 404.9 305.94 0 -152.97 -404.9zm510.58 659.45l291.7 0 -0 81.17 -374.72 0 0 -826.18 83.01 0 0 745.01zm968.27 -47.24l259.6 -697.76 85.37 0c-104.77,275.44 -209.71,550.83 -314.73,826.18l-64.18 0c-104.07,-275.47 -208.47,-550.84 -312.86,-826.18l85.35 0 261.43 697.76zm479.33 128.41l-79.6 0 0 -826.18 83.03 0 0 826.18 -3.43 0zm112.88 -240.94l78.16 0 0 3.43c0,19.14 3.19,37.83 9.12,56.06 5.94,18.27 14.63,36.11 25.6,53.49 11.72,17.13 27.06,30.21 46.23,39.23 19.29,9.07 42.49,14.08 69.82,14.99 24.6,-0.91 46,-5.02 64.41,-12.75 18.31,-7.68 33.67,-18.98 46.31,-34.31 12.54,-15.23 22,-32.71 28.6,-52.2 6.8,-20.09 10.55,-42.32 11.5,-66.42 -0.91,-28.24 -5.91,-51.9 -15.21,-71.18 -9.22,-19.13 -22.72,-33.98 -40.7,-44.77l-0.07 -0.04c-17.57,-11.1 -36.99,-21.27 -57.76,-30.26 -20.68,-8.95 -42.77,-16.77 -65.81,-23.22 -23.77,-6.65 -46.59,-15.25 -67.97,-25.77 -20.73,-10.21 -40.11,-22.26 -57.68,-36.14 -19.06,-14.32 -33.36,-33.86 -42.88,-58.59 -9.45,-24.56 -14.17,-54.24 -14.17,-89.01 0,-26.39 4.25,-51.86 12.98,-76.62 8.7,-24.69 21.88,-48.68 39.77,-72.21 17.88,-23.52 40.88,-41.45 68.76,-53.97 28.16,-12.65 61.29,-19.81 99.14,-21.69l0.24 0c34.89,0.94 65.58,7.1 91.8,18.47 26.23,11.38 47.99,27.96 65.02,49.73 17.1,21.85 30.37,45.61 39.56,71.27 9.03,25.2 14.12,52.28 15.05,81.22l0.11 3.54 -81.07 0 -0.18 -3.24c-0.9,-16.38 -4.09,-32.32 -9.56,-47.81 -5.46,-15.49 -13.21,-30.53 -23.21,-45.08 -9.86,-13.45 -22.89,-23.78 -38.85,-31.2 -16.08,-7.47 -35.17,-12.02 -57.01,-13.85 -22.94,0.94 -43.06,5.11 -60.13,12.73 -16.62,7.42 -30.37,18.13 -41.03,32.34l-0.08 0.11c-11.83,14.56 -20.47,29.57 -26.15,45.23 -5.66,15.62 -8.38,31.96 -8.38,49.22 0.91,22.62 5.87,42.03 15.09,58.23 9.2,16.15 22.69,29.18 40.7,39.09l0.07 0.04c17.15,9.92 36.08,18.97 56.33,27.13 21.14,8.52 43.75,16.09 67.35,22.69 23.47,6.57 46,15.5 67.12,26.53 21.09,11.02 40.79,24.17 58.62,39.19 18.28,15.39 32.66,36.09 42.63,61.83 9.7,25.04 15.25,54.9 16.17,89.32l0.01 0.08c0,34.69 -4.7,67.07 -14.09,97.61 -9.39,30.53 -23.48,59.18 -42.25,86.41l-0.03 0.04c-19.1,26.75 -44.93,47.71 -76.99,62.14 -31.35,14.11 -68.68,21.97 -111.52,22.9l-0.23 0c-38.53,-1.88 -71.95,-9.43 -100.47,-23.1 -28.64,-13.72 -52.31,-33.59 -71.22,-60.08 -18.72,-25.29 -32.79,-51.99 -42.18,-79.87 -9.33,-27.69 -14.06,-56.51 -14.19,-86.23l-47.51 -57.01 52.35 52.35zm658.13 240.94l-79.58 0 0 -826.18 83.01 0 0 826.18 -3.43 0zm198.5 -414.01c0.92,47.87 9.2,91.58 25.06,131.58 15.86,39.99 39.33,76.33 70.62,109.46l0.03 0.04c30.28,33.03 66.07,58.29 106.67,75.51 40.71,17.27 86.28,26.49 135.99,27.42 50.61,-1.85 95.69,-11.51 135.45,-29.43 39.72,-17.9 74.15,-44.07 103.52,-78.97l0.02 -0.04c29.54,-34.15 52.15,-71.56 67.56,-111.96 15.33,-40.17 23.57,-83.32 24.49,-129.19 -0.91,-45.78 -9.59,-88.38 -25.77,-127.76 -16.33,-39.75 -40.34,-76.27 -71.78,-109.55 -31.26,-33.1 -66.65,-58.39 -106.39,-75.85 -39.75,-17.47 -83.89,-27.12 -132.63,-28.96 -48.74,1.85 -92.88,11.05 -132.41,28.06 -39.51,17 -74.43,41.8 -104.73,74.86l-0.03 0.04c-31.27,33.12 -54.73,69.91 -70.59,110.37 -15.87,40.48 -24.16,84.67 -25.09,132.52l0.01 1.84zm338.56 -428.89c66.4,2.8 125.35,15.44 176.81,38.13 51.56,22.73 95.63,55.56 132.21,98.7 36.62,43.19 64.29,89.23 82.78,138.11 18.36,48.54 27.65,99.85 27.65,153.91l-0.01 0.05c-0.93,54.29 -10.76,105.78 -29.71,154.46 -18.96,48.69 -47.04,94.55 -84.46,137.57 -37.46,43.07 -82.39,75.85 -134.56,98.34 -52.22,22.51 -111.7,34.71 -178.2,36.58l-0.23 0c-65.54,-2.81 -124.09,-15.48 -175.38,-37.99 -51.25,-22.5 -95.26,-54.82 -131.77,-96.95l-0.02 -0.03c-36.48,-43.03 -64.09,-88.88 -82.8,-137.78 -18.71,-48.89 -28.54,-100.84 -29.47,-156.06l0 -0.11c0.93,-57.07 10.76,-109.95 29.72,-159.1 18.96,-49.16 47.05,-94.56 84.48,-136.66 37.28,-41.95 82,-73.71 133.67,-95.5 51.67,-21.79 110.29,-33.59 175.38,-35.62l-0.02 -0.22 3.93 0.17zm1070.26 730.84l0 -715.98 79.32 0 0 826.18 -100.06 0 -444.29 -712.31 0 712.31 -79.32 0 0 -826.18 100.05 0 444.3 715.98zm-5412.51 403.17c-14.83,-35.49 -37.45,-63.4 -67.86,-83.71 -30.4,-20.32 -66.13,-30.48 -107.17,-30.48 -38.57,0 -73.17,9.26 -103.83,27.77 -30.65,18.52 -54.88,44.88 -72.68,79.09 -17.8,34.2 -26.7,73.94 -26.7,119.2 0,45.26 8.9,85.13 26.7,119.59 17.8,34.46 42.03,60.95 72.68,79.47 30.65,18.52 65.26,27.78 103.83,27.78 36.09,0 68.6,-8.1 97.53,-24.3 28.92,-16.2 52.16,-39.35 69.71,-69.44 17.55,-30.09 27.56,-65.2 30.04,-105.32l-218.04 0 0 -43.98 272.92 0 0 39.35c-2.47,47.32 -14.83,90.14 -37.08,128.46 -22.25,38.32 -52.04,68.54 -89.37,90.66 -37.33,22.12 -79.23,33.18 -125.71,33.18 -47.96,0 -91.47,-11.7 -130.53,-35.11 -39.06,-23.4 -69.84,-56.07 -92.33,-97.99 -22.5,-41.92 -33.75,-89.37 -33.75,-142.35 0,-52.98 11.25,-100.43 33.75,-142.35 22.5,-41.92 53.28,-74.58 92.33,-97.99 39.06,-23.4 82.57,-35.11 130.53,-35.11 55.38,0 103.83,14.4 145.36,43.21 41.53,28.8 71.69,68.92 90.48,120.36l-60.81 0zm1082.05 253.84l-235.84 0 -45.24 128.08 -54.88 0 189.12 -532.36 58.59 0 188.37 532.36 -54.88 0 -45.24 -128.08zm-15.58 -44.75l-102.34 -291.64 -102.34 291.64 204.69 0zm1314.93 -359.54l0 532.36 -51.92 0 0 -425.12 -182.44 425.12 -37.82 0 -182.44 -423.58 0 423.58 -51.92 0 0 -532.36 54.88 0 198.02 461.38 198.02 -461.38 55.62 0zm779.46 -6.94l0 539.31 -51.92 0 0 -539.31 51.92 0zm1118.39 539.31l-51.91 0 -287.01 -453.67 0 453.67 -51.92 0 0 -539.31 51.92 0 287.01 452.9 0 -452.9 51.91 0 0 539.31zm1135.45 -381.91c-14.83,-35.49 -37.45,-63.4 -67.86,-83.71 -30.41,-20.32 -66.13,-30.48 -107.17,-30.48 -38.56,0 -73.17,9.26 -103.83,27.77 -30.65,18.52 -54.88,44.88 -72.68,79.09 -17.8,34.2 -26.69,73.94 -26.69,119.2 0,45.26 8.9,85.13 26.69,119.59 17.8,34.46 42.03,60.95 72.68,79.47 30.65,18.52 65.27,27.78 103.83,27.78 36.09,0 68.6,-8.1 97.53,-24.3 28.92,-16.2 52.16,-39.35 69.71,-69.44 17.55,-30.09 27.57,-65.2 30.04,-105.32l-218.04 0 0 -43.98 272.92 0 0 39.35c-2.47,47.32 -14.83,90.14 -37.08,128.46 -22.25,38.32 -52.04,68.54 -89.37,90.66 -37.33,22.12 -79.23,33.18 -125.71,33.18 -47.96,0 -91.47,-11.7 -130.53,-35.11 -39.06,-23.4 -69.83,-56.07 -92.33,-97.99 -22.49,-41.92 -33.74,-89.37 -33.74,-142.35 0,-52.98 11.25,-100.43 33.74,-142.35 22.5,-41.92 53.28,-74.58 92.33,-97.99 39.06,-23.4 82.57,-35.11 130.53,-35.11 55.38,0 103.83,14.4 145.36,43.21 41.53,28.8 71.69,68.92 90.48,120.36l-60.81 0z"/>
 </g>
</svg>
