<?xml version="1.0" encoding="UTF-8"?>
<!DOCTYPE svg PUBLIC "-//W3C//DTD SVG 1.1//EN" "http://www.w3.org/Graphics/SVG/1.1/DTD/svg11.dtd">
<!-- Creator: CorelDRAW 2021 (64-Bit) -->
<svg xmlns="http://www.w3.org/2000/svg" xml:space="preserve" width="135.45mm" height="118.032mm" version="1.1" style="shape-rendering:geometricPrecision; text-rendering:geometricPrecision; image-rendering:optimizeQuality; fill-rule:evenodd; clip-rule:evenodd"
viewBox="0 0 335.9 292.71"
 xmlns:xlink="http://www.w3.org/1999/xlink"
 xmlns:xodm="http://www.corel.com/coreldraw/odm/2003">
 <defs>
  <style type="text/css">
   <![CDATA[
    .fil0 {fill:white}
   ]]>
  </style>
 </defs>
 <g id="Capa_x0020_1">
  <metadata id="CorelCorpID_0Corel-Layer"/>
  <g id="_2141595960976">
   <path class="fil0" d="M335.9 92.58l0 2.78c-0.64,3.34 -3.62,6.85 -9.33,13.4l-150.28 179.72c-4.73,5.75 -12.23,5.64 -16.97,-0.37l-15.5 -18.62c-18.79,-21.54 -38.52,-46.95 -57.08,-68.23l-36.43 -43.61c-3.57,-4.24 -6.75,-7.84 -10.2,-12.1 -1.77,-2.18 -3.67,-4.19 -5.43,-6.38l-12.83 -15.39c-1.11,-1.33 -1.1,-1.58 -2.34,-2.91 -3.84,-4.13 -6.76,-8.26 -10.5,-12.46 -1.76,-1.98 -3.55,-4.11 -5.08,-6.07 -3.62,-4.62 -3.93,-3.89 -3.93,-9.85 0,-3.71 21.44,-35.94 25.31,-42.27l18.38 -29.51c5.09,-7.74 10.86,-20.73 17.32,-20.73l213.87 0c5.47,0 7.87,5.86 10.23,9.45l36.88 58.91c1.35,2.09 2.46,3.88 3.79,6.05 5.86,9.57 9.41,14.26 10.12,18.16l0 0zm-259.14 -72.89l68.89 0c-0.61,2.3 -0.86,1.78 -2.45,3.45 -1.44,1.51 -1.55,2.07 -2.96,3.6l-20.66 23.95c-1.53,1.57 -1.67,1.68 -3.07,3.49l-6.12 7c-1.33,1.43 -1.4,1.88 -2.64,3.27l-9.34 10.34 -21.65 -55.11 -0 0zm160.73 55.11c-0.81,-0.54 -5.14,-5.38 -6,-6.46 -1.3,-1.63 -1.56,-1.97 -3.02,-3.54 -1.4,-1.51 -1.56,-2.1 -2.95,-3.6 -1.36,-1.46 -1.44,-1.5 -2.74,-3.17l-6.12 -7c-1.55,-1.56 -1.65,-2 -2.98,-3.58l-8.82 -10.2c-1.49,-1.56 -1.67,-2.01 -2.98,-3.58l-5.88 -6.59c-1.47,-1.54 -5.3,-5.75 -5.74,-7.38l68.89 0c-3.68,6.95 -17.58,47.41 -21.65,55.11l-0 -0zm-177.14 -42.64l17.3 45.02c0.95,2.68 1.76,4.14 2.38,6.81l-51.83 0c0.58,-2.16 2.59,-4.8 3.81,-6.69l24.19 -38.79c0.84,-1.42 1.19,-1.89 2.04,-3.21l2.1 -3.14 -0 0zm107.59 -6.56c2.04,1.37 1.74,1.56 3.19,3.37l6.17 6.95c1.57,1.61 1.78,2.34 3.27,3.94l37.89 44.12 -101.03 0 37.56 -43.8c3.21,-3.23 10.35,-12.84 12.96,-14.59l-0 0zm107.59 6.56c0.87,1 0.26,0.27 1.09,1.53l27.25 43.61c1.22,1.89 3.23,4.53 3.81,6.69l-51.83 0c1.45,-6.22 18.31,-45.96 19.68,-51.83l-0 -0zm-139.74 196.16l-13.03 -15.18c-4.37,-5.39 -8.73,-10.32 -13.12,-15.75 -2.13,-2.63 -4.1,-4.72 -6.27,-7.5l-32.67 -38.84c-4.6,-5.27 -8.51,-10.46 -13.12,-15.75l-19.71 -23.59c-2.36,-2.65 -4.48,-5.19 -6.39,-8.04l56.42 0c1.03,2.15 1.87,5.03 2.91,7.59l42.08 108.82c0.95,2.36 2.71,5.88 2.91,8.25l-0 -0zm64.29 0c0.21,-2.57 10.56,-27.8 11.71,-30.93l33.09 -85.66c1.04,-2.6 2.02,-5.83 3.09,-8.06l56.42 0 -58.11 69.82c-10.67,13.58 -27.65,33.13 -39.44,47.16 -1.6,1.91 -5.14,6.58 -6.76,7.67l-0 -0zm-90.54 -124.65l116.78 0 -21.46 55.96c-8.63,22.11 -21.59,54.21 -29.14,75.18 -1.7,4.72 -6.22,15.15 -7.14,19.1l-59.05 -150.24 0 -0z"/>
  </g>
 </g>
</svg>
