<?xml version="1.0" encoding="UTF-8"?>
<!DOCTYPE svg PUBLIC "-//W3C//DTD SVG 1.1//EN" "http://www.w3.org/Graphics/SVG/1.1/DTD/svg11.dtd">
<!-- Creator: CorelDRAW 2021 (64-Bit) -->
<svg xmlns="http://www.w3.org/2000/svg" xml:space="preserve" width="57.5763mm" height="57.5467mm" version="1.1" style="shape-rendering:geometricPrecision; text-rendering:geometricPrecision; image-rendering:optimizeQuality; fill-rule:evenodd; clip-rule:evenodd"
viewBox="0 0 978.61 978.1"
 xmlns:xlink="http://www.w3.org/1999/xlink"
 xmlns:xodm="http://www.corel.com/coreldraw/odm/2003">
 <defs>
  <style type="text/css">
   <![CDATA[
    .fil0 {fill:white}
   ]]>
  </style>
 </defs>
 <g id="Capa_x0020_1">
  <metadata id="CorelCorpID_0Corel-Layer"/>
  <path class="fil0" d="M599.88 243.18c-0.31,-4.3 0.62,-7.44 0.03,-12.19 -0.58,-4.62 -2.01,-5.76 -2.37,-9.72l-13.09 -11.38c-5.78,0.31 -19.85,-1.11 -27.87,-1.13l-85.81 0.08c-38,-0.1 -76.01,-0.08 -114.01,-0.08 -17.13,-0 -160.07,-1.86 -170.06,1.82 -12.38,4.56 -22.44,21.87 -13.26,37.05 9.28,15.34 23.75,13.36 44.8,13.24 18.79,-0.11 37.6,-0 56.39,-0.04l228.02 0.06c13.41,0 73.26,2.2 83.38,-2.86 3.51,-1.75 6.47,-4.44 8.18,-6.53l5.07 -7.54c0.09,-0.46 0.39,-0.53 0.62,-0.76zm-62.92 358.51c-2.4,1.81 -15.53,4.51 -19.45,4.11 -4.2,3.04 -33.07,9.12 -36.99,9.48 1.27,-3.88 28.37,-49.16 33.57,-53.45 0.55,-4.18 24.4,-42.17 27.76,-44.8 3.82,4.21 12.03,15.2 12.77,19.61 3.67,2.29 34.23,46.81 36.48,51.14 -3.85,3.09 -20.92,6.24 -25.86,7.41 -9.46,2.24 -18.77,4.98 -28.3,6.51zm296.9 -167.6l-4.08 4.01c-1.42,1.09 -3.56,2.43 -5.05,3.47 -10.6,7.33 -60.98,43.11 -67.1,45.68 -0.91,2.11 -13.19,9.93 -16.16,12.02 -6.06,4.26 -11.88,8.42 -18.07,12.58 -6.47,4.35 -11.66,8.08 -17.37,12.06 -3.98,2.77 -13.67,10.82 -18.5,11.71 -2.88,4.71 -43.53,31.64 -46.62,32.66l-40.37 -58.78c-4.42,-6.23 -10.87,-14.05 -13.41,-20.46l-9.66 -14.06 60.48 -42.45c5.62,-3.85 14.91,-12.4 20.7,-13.27 2.42,-3.9 94.03,-67.69 101.01,-70.38 1.36,-2.4 35.16,-26.05 39.43,-27.93l23.2 32.98c1.52,2.15 2.71,3.73 4.13,5.72l3.05 6.09c1.4,1.09 0.93,0.62 2.21,1.96 1.13,1.19 1.47,1.68 2.3,2.79 1.61,2.16 2.31,3.24 3.54,5.01 4.78,6.91 18.79,26 20.87,31.42l5.27 6.61c-4.67,4.81 -26.17,19.8 -29.76,20.54zm-222.81 -47.31c-1.66,3.01 -56.68,40.34 -66.3,47l-5.41 2.62c-4.71,6.95 -12.68,6.6 -22.13,19.87l-325.96 0.37c-11.37,3.48 -17.76,8.98 -20.94,20.8 -0.36,7.74 -0.07,8.92 1.92,15.86 5.48,8.17 8.31,12.19 20.25,14.97l291.49 0.13c-0.65,3.49 -48.37,80.27 -51.22,82.71 -13.21,-5.86 -15.59,-4.37 -31.87,-4.37l-186.34 -0.01c-12.34,0.06 -22.85,-1.81 -32.46,4.14 -8.31,5.15 -12.63,13.21 -11.64,27.54 4.3,11.8 9.57,18.15 23.58,20.34l26.35 0.03 22.74 -0 26.17 -0 22.87 0 26.17 -0 22.87 0 26.14 -0.01 35.47 0.12c-2.95,8.44 -7.66,12.4 -4.57,24.06 8.96,33.84 50.08,11.67 61.79,12.38 4.52,-3.83 23.23,-6.92 30.36,-8.02 4.56,-2.27 15.56,-4.81 20.78,-4.36 1.55,-1.2 -0.92,0.02 2.54,-1.45 0.3,-0.13 2.37,-0.84 2.81,-0.97l19.81 -4.75c8.76,-2.06 17.61,-4.69 26.52,-6.16 4.26,-1.65 13.84,-4.6 19.17,-3.89 1.44,-1.09 -0.52,-0.18 2.82,-1.57l27.39 -6.52c4.56,-2.02 18.36,-4.59 24.81,-6.29 4.29,-1.13 8.31,-2.22 11.68,-4.18 4.42,-2.56 5.25,-4.88 9.92,-5.64 2.93,-4.58 10.91,-8.64 15.44,-11.92 4.37,-3.17 12.72,-9.51 17.47,-11.29l0.13 222.36c0,28.85 1.73,41.89 -11.6,63.07 -19.11,20.53 -29.43,16.01 -65.86,15.69 -81.84,-0.71 -164.17,0.8 -246.41,-0.01 -54.63,-0.54 -109.6,-0.1 -164.27,-0.07 -18.36,0.01 -65.63,2.18 -79.59,-2.79 -18.05,-6.43 -37.76,-22.54 -42.88,-40.34l-0.86 -5.28c-3.25,-4.2 -1.61,-150.39 -1.5,-167.58 0.37,-56.2 0.43,-112.98 -0.02,-169.17 -1.01,-126.03 0.03,-254.72 0.04,-381.26 0,-15.8 -2.47,-25.8 7.06,-35.62 14.88,-15.34 38.33,-18.94 65.03,-19 56.77,-0.11 113.63,-0.16 170.4,0.04 33.9,0.12 333.12,-2.18 337.78,1.21l0.57 -0.58c25.44,2.48 31.87,13.3 32.02,39.24l0.06 212.08c-0.82,3.34 -50.09,36.02 -59.38,42.57 -6.2,4.38 -14.37,11.3 -21.19,13.88zm243.59 -106.12c5.95,-9.71 15.02,-10.46 23.79,-4.96 8.35,5.23 13.54,11.52 19.39,18.61 8.99,10.9 23.05,31.31 26.55,49.5 1.41,3.39 1.99,7.93 2.17,12.3 0.27,6.34 0.55,9.75 -4.23,10.65 -0.21,0.28 -0.55,0.32 -0.67,0.79l-6.29 5.29c-3.23,2.34 -4.26,3.37 -8.68,4.59 -5.17,-11.48 -18.56,-24.08 -24.03,-36.07 -2.6,-1.23 -16.17,-21.83 -19.3,-26.06 -3.92,-5.3 -17.22,-22.97 -19.06,-27.88 2.63,-2.74 6.43,-5.96 10.34,-6.76zm-759.01 -275.06l-22.13 6.74c-1.44,1.41 0.4,0.02 -2.22,1.77 -4.39,2.93 -12.62,5.83 -25.03,14.33l-17.9 15.18c-0.73,0.81 -1.79,2.07 -2.37,2.54 -2.31,1.86 -0.11,0.88 -3.18,1.71 -0.66,4.06 -1.95,4.57 -4.86,8.64 -18.43,25.82 -17.38,50.73 -17.39,80.13l-0.12 562.69c-0,25.88 -1.91,146.01 2.12,166.55 3.83,19.53 10.41,27.11 15.94,41.85l10.48 13.94c19.23,24.13 39.77,33.32 42.71,37.36 17.51,5.79 29.25,16.45 60.77,18.31 25.21,1.49 54.02,0.13 79.63,0.17 53.11,0.08 106.26,-0.15 159.37,0.09 89.37,0.41 188.65,0.97 278.28,-0.1 15.79,-0.19 22.22,-2.65 36.19,-5.17 1.46,-0.9 19.02,-8.76 21.24,-8.99 3.01,-3.56 6.49,-4.86 10.11,-7.66 12.01,-9.29 25.16,-25.27 27.58,-26.66 0.73,-4.2 8.74,-15.97 11.79,-22.25 3.93,-8.08 6.27,-18.57 8.89,-24.55 5.01,-29.47 4.2,-51.84 4.18,-82.36l0.39 -257.16c18.77,-12.55 36.45,-24.91 55.09,-38.15 8.51,-6.05 50.72,-35.95 56.74,-38.46 0.13,-0.19 0.38,-0.71 0.44,-0.54l34.7 -24.8c5.32,-4.46 5.09,-7.7 9.19,-11.64l36.53 -26c6.02,-4.39 5.12,-7.39 9.1,-10.81 3.4,-13.93 6.98,-18.83 6.71,-36.21 -0.21,-13.66 -2.8,-25.47 -7.14,-37.16 -2.06,-8.02 -7.91,-14.87 -8.46,-22.07 -3.4,-2.6 -12.6,-19 -15.85,-23.65 -5.84,-8.32 -11.11,-14.91 -17.47,-21.74 -13.14,-14.13 -24.83,-22.82 -48.74,-30.78l-5.63 -0.99c-30.44,-1.72 -40.79,10.35 -58.49,22.72 -8.13,5.69 -15.93,11.15 -23.68,16.76 -4.22,3.06 -13.24,13.71 -23.25,17.33 -0.58,-34.72 0.23,-69.58 -0.09,-104.31 -0.41,-45.45 3.08,-56.8 -6.46,-100.52 -0.93,-0.74 -7.1,-15.18 -9.12,-18.65 -7.27,-12.49 -15.55,-21.1 -26.86,-29.53 -2.53,-1.89 -15.53,-9.6 -16.32,-10.62 -11.11,-3.31 -18.46,-7.28 -31.74,-9.85 -23.3,-4.51 -88.47,-2.54 -115.36,-2.7l-315.06 -0.04c-51.29,0.15 -104.74,-2.39 -153.23,5.32zm492.8 369.01l7.5 -6.71c2.89,-11.16 6.14,-9.49 2.83,-25.31 -1.09,-1.59 -2.65,-4.87 -4.45,-7.09 -2.46,-3.01 -4.69,-3.74 -6.34,-6.3 -18.39,-5.44 -84.98,-3.14 -108.63,-3.15l-278.29 0.03c-42.12,-0.07 -41.26,51.96 -1.25,52.01l334.71 0.04c20.85,-0.12 37.25,1.93 53.93,-3.54z"/>
 </g>
</svg>
