<?xml version="1.0" encoding="UTF-8"?>
<!DOCTYPE svg PUBLIC "-//W3C//DTD SVG 1.1//EN" "http://www.w3.org/Graphics/SVG/1.1/DTD/svg11.dtd">
<!-- Creator: CorelDRAW 2021 (64-Bit) -->
<svg xmlns="http://www.w3.org/2000/svg" xml:space="preserve" width="63.1754mm" height="55.0516mm" version="1.1" style="shape-rendering:geometricPrecision; text-rendering:geometricPrecision; image-rendering:optimizeQuality; fill-rule:evenodd; clip-rule:evenodd"
viewBox="0 0 1197.99 1043.94"
 xmlns:xlink="http://www.w3.org/1999/xlink"
 xmlns:xodm="http://www.corel.com/coreldraw/odm/2003">
 <defs>
  <style type="text/css">
   <![CDATA[
    .fil0 {fill:white}
   ]]>
  </style>
 </defs>
 <g id="Capa_x0020_1">
  <metadata id="CorelCorpID_0Corel-Layer"/>
  <path class="fil0" d="M713.65 814.26zm-229.3 0l229.3 0zm484.34 -484.09l0 9.92c-2.26,11.93 -12.91,24.44 -33.28,47.8l-535.97 640.97c-16.86,20.51 -43.63,20.13 -60.53,-1.31l-55.27 -66.4c-66.99,-76.84 -137.38,-167.43 -203.57,-243.34l-129.94 -155.52c-12.73,-15.13 -24.07,-27.96 -36.39,-43.17 -6.3,-7.78 -13.07,-14.96 -19.37,-22.74l-45.74 -54.87c-3.97,-4.73 -3.91,-5.63 -8.33,-10.38 -13.69,-14.72 -24.12,-29.48 -37.45,-44.45 -6.29,-7.06 -12.65,-14.65 -18.13,-21.64 -12.92,-16.47 -14.02,-13.87 -14.02,-35.11 0,-13.25 76.46,-128.2 90.26,-150.74l65.55 -105.25c18.14,-27.61 38.72,-73.93 61.79,-73.93l762.78 0c19.51,0 28.08,20.91 36.49,33.71l131.52 210.09c4.82,7.46 8.76,13.84 13.51,21.59 20.9,34.13 33.56,50.87 36.09,64.78zm-713.65 484.09zm-93.59 -444.57l93.59 444.57zm-93.59 -444.57l416.49 0 -76.52 199.58c-30.77,78.84 -77,193.34 -103.92,268.11 -6.07,16.85 -22.18,54.05 -25.47,68.13l-210.58 -535.82zm322.9 444.57c0.76,-9.15 37.65,-99.16 41.77,-110.32l118.01 -305.5c3.72,-9.27 7.2,-20.78 11.03,-28.75l201.23 0 -207.25 249.02c-38.06,48.42 -98.62,118.17 -140.66,168.2 -5.71,6.79 -18.33,23.47 -24.12,27.35zm-229.3 0l-46.47 -54.14c-15.57,-19.23 -31.13,-36.81 -46.79,-56.16 -7.58,-9.36 -14.61,-16.83 -22.38,-26.76l-116.52 -138.52c-16.39,-18.8 -30.35,-37.3 -46.8,-56.15l-70.28 -84.15c-8.41,-9.44 -15.99,-18.52 -22.8,-28.68l201.23 0c3.68,7.66 6.68,17.94 10.37,27.07l150.07 388.09c3.4,8.43 9.67,20.97 10.37,29.41zm498.38 -699.61c3.11,3.58 0.94,0.97 3.89,5.47l97.17 155.52c4.36,6.75 11.53,16.15 13.58,23.86l-184.85 0c5.16,-22.17 65.32,-163.9 70.2,-184.85zm-383.73 -23.4c7.27,4.87 6.21,5.55 11.36,12.03l22 24.79c5.6,5.75 6.35,8.33 11.68,14.06l135.12 157.36 -360.34 0 133.94 -156.2c11.46,-11.52 36.9,-45.81 46.22,-52.05zm-383.73 23.4l61.71 160.57c3.4,9.55 6.27,14.77 8.48,24.27l-184.85 0c2.06,-7.7 9.22,-17.11 13.58,-23.86l86.29 -138.34c2.99,-5.06 4.25,-6.75 7.28,-11.44l7.5 -11.21zm631.76 152.09c-2.89,-1.93 -18.32,-19.2 -21.41,-23.05 -4.65,-5.8 -5.56,-7.04 -10.76,-12.64 -4.99,-5.37 -5.54,-7.49 -10.54,-12.86 -4.84,-5.21 -5.14,-5.36 -9.76,-11.3l-21.84 -24.96c-5.54,-5.57 -5.88,-7.15 -10.63,-12.76l-31.47 -36.39c-5.3,-5.57 -5.94,-7.18 -10.64,-12.76l-20.95 -23.5c-5.23,-5.49 -18.92,-20.5 -20.47,-26.32l245.68 0c-13.12,24.8 -62.68,169.08 -77.22,196.55zm-573.26 -196.55l245.68 0c-2.19,8.21 -3.07,6.36 -8.74,12.32 -5.12,5.38 -5.51,7.39 -10.57,12.83l-73.67 85.44c-5.45,5.6 -5.95,5.98 -10.96,12.44l-21.82 24.98c-4.73,5.09 -4.98,6.69 -9.4,11.66l-33.3 36.89 -77.22 -196.55z"/>
 </g>
</svg>
