<?xml version="1.0" encoding="UTF-8"?>
<!DOCTYPE svg PUBLIC "-//W3C//DTD SVG 1.1//EN" "http://www.w3.org/Graphics/SVG/1.1/DTD/svg11.dtd">
<!-- Creator: CorelDRAW 2021 (64-Bit) -->
<svg xmlns="http://www.w3.org/2000/svg" xml:space="preserve" width="49.8074mm" height="40.4996mm" version="1.1" style="shape-rendering:geometricPrecision; text-rendering:geometricPrecision; image-rendering:optimizeQuality; fill-rule:evenodd; clip-rule:evenodd"
viewBox="0 0 715.91 582.13"
 xmlns:xlink="http://www.w3.org/1999/xlink"
 xmlns:xodm="http://www.corel.com/coreldraw/odm/2003">
 <defs>
  <style type="text/css">
   <![CDATA[
    .fil0 {fill:white}
   ]]>
  </style>
 </defs>
 <g id="Capa_x0020_1">
  <metadata id="CorelCorpID_0Corel-Layer"/>
  <path class="fil0" d="M524.35 256.33c1.76,-7.55 4.61,-12.04 7.92,-18.64 20.57,-41.04 30.41,-84.6 36.4,-130 1.14,-8.68 1.44,-17.16 3.22,-24.75l95.08 0c-0.37,16.86 -8.64,48.98 -13.8,64.51 -15.49,46.65 -44.86,89.62 -94.14,103.01 -8.69,2.35 -24.83,5.64 -34.68,5.86zm-475.41 -173.38l95.08 0c1.66,7.15 2.06,15.39 3.05,23.52l8.12 47.81c10.65,43.61 16.38,61.65 37.77,102.06 -40.99,0 -80.19,-21.55 -103.47,-54.54 -18.14,-25.69 -27.49,-52.91 -34.99,-83.86 -1.83,-7.54 -5.34,-26.81 -5.56,-34.99zm92.28 -78.3l0 30.77 -141.22 0 0 4.38c0.07,44.76 1.35,73.63 15.89,118.16 13.62,41.72 23.79,57 47.21,87.03 5.25,6.73 7.73,7.27 13.47,13.1 27.85,28.33 73.44,45.8 117.79,45.8 12.32,0 16.25,1.01 26.57,-1.39 2.44,3.64 6.04,7.6 9.17,11.8l19.84 22.11c4.32,4.36 6.99,5.87 11.19,9.78 10.33,9.6 41.27,30.79 53.49,31.81l0 103.47 -103.47 0 0 64.32 -33.56 0 0 36.35 360.75 0 0 -36.35 -33.56 0 0 -64.32 -103.47 0 0 -103.47c11.47,-0.96 43.13,-21.91 52.78,-31.12 13.61,-12.98 29.47,-27.31 40.9,-44.39 10.32,2.4 14.25,1.39 26.57,1.39 42.36,0 89.81,-17.24 116.4,-44.39 4.91,-5.01 9.87,-7.96 13.66,-12.9l12.57 -15.4c14.94,-20.75 26.41,-44.87 35.47,-72.19 14.78,-44.5 16.17,-74.23 16.24,-119.19l0 -4.4 -141.22 0c0,-12.98 1.12,-24.15 -1.4,-34.96l-408.29 0c-12.43,0 -23.77,-2.48 -23.77,4.19z"/>
 </g>
</svg>
