<?xml version="1.0" encoding="UTF-8"?>
<!DOCTYPE svg PUBLIC "-//W3C//DTD SVG 1.1//EN" "http://www.w3.org/Graphics/SVG/1.1/DTD/svg11.dtd">
<!-- Creator: CorelDRAW 2021 (64-Bit) -->
<svg xmlns="http://www.w3.org/2000/svg" xml:space="preserve" width="67.3071mm" height="57.5684mm" version="1.1" style="shape-rendering:geometricPrecision; text-rendering:geometricPrecision; image-rendering:optimizeQuality; fill-rule:evenodd; clip-rule:evenodd"
viewBox="0 0 1376.89 1177.67"
 xmlns:xlink="http://www.w3.org/1999/xlink"
 xmlns:xodm="http://www.corel.com/coreldraw/odm/2003">
 <defs>
  <style type="text/css">
   <![CDATA[
    .fil0 {fill:white}
   ]]>
  </style>
 </defs>
 <g id="Capa_x0020_1">
  <metadata id="CorelCorpID_0Corel-Layer"/>
  <path class="fil0" d="M455.75 647.52c3.41,-4.72 24.33,-12.34 32.13,-13.74 -5.57,65.89 17.79,120.5 80.81,144.81 30.39,11.72 70.72,7.69 105.65,7.69l110.73 -0.17 8.56 -3.3c2.79,-0.7 4.58,-1.07 7.23,-1.76 26.11,-7.86 50.34,-25.03 65.78,-46.97 4.33,-6.16 9.01,-17.08 13.13,-22.5 1.13,-5.08 2.33,-8.05 3.84,-12.9 0.56,-1.78 1.22,-4.42 1.84,-5.95 1.7,-4.23 0.21,-1.6 2.39,-4.42 -1.06,-8.47 1.49,-18.34 1.56,-27.65 0.07,-9.33 0.12,-18.91 -0.34,-28.23 6.85,1.04 33.85,11.55 36.9,14.61 3.88,1.04 5.12,1.48 8.87,3.22 0.76,0.36 3.72,2 4.1,2.26 1.9,1.29 1.66,1.12 2.87,2.47l11.15 3.57 -31.16 148.81c-0.92,3.71 -1.56,6.68 -2.3,10.44l-2.07 7.47c-0.11,0.28 -0.5,1.35 -0.58,1.13 -0.08,-0.23 -0.37,0.76 -0.61,1.1 1.51,10.44 -1.81,23.59 0.44,37.87l1.37 9.85c4.2,19.19 10.96,29.82 18.91,44.43 5.29,5.95 8.79,10.57 14.7,16.33 2.9,2.83 4.54,4.77 7.67,7.71 4.4,4.13 4.87,1.97 8.07,8.01 7.33,1.57 14.71,7.92 23.29,11.59 8.19,3.51 16.57,6.14 24.83,7.79 3.44,0.49 6.52,0.89 10.28,1.91 1.32,0.36 2.09,0.58 3.61,1.19 4.63,1.86 1.42,0.38 3.49,1.83 5.77,-0.93 11.09,1.24 17.17,2.02 -2.21,4.14 -0.14,0.62 -2.23,3.34 -0.24,0.3 -0.52,0.65 -0.77,0.95 -9.23,11.23 -28.53,28.59 -39.97,37.27 -4.55,3.44 -11.17,9.75 -16.2,10.82 -4.09,6.38 -15.54,11.51 -22.33,15.55 -8.25,4.92 -15.96,10.21 -24.65,13.19 -6.8,4.89 -40.65,19.41 -46.85,19.33 -5.23,4.69 -30.51,11.78 -35.91,12.69 -4.94,3.17 -24.11,7.73 -30.75,7.38 -3.17,2.41 0.12,0.66 -4.65,2.35 -1.09,0.39 -3.77,0.92 -5.1,1.18 -3.25,0.63 -5.68,0.97 -8.84,1.72 -24.84,3.14 -48.18,8.16 -74.39,10.11 -27.22,2.03 -52.68,1.17 -79.44,1.14 -22.37,-1.18 -46.21,-3.15 -68.33,-6.8l-20.37 -5.08c-7.7,1.16 -16.94,-2.33 -24.63,-3.69l-18 -5.1c-11.77,-2.17 -46.11,-13.4 -55.44,-18.4 -2.43,-0.78 -3.91,-1.11 -6.14,-2.28 -6.03,-3.15 -1.74,-0.72 -4.13,-2.94 -10.86,-0.12 -71.44,-34.77 -75.69,-41.46 -6.62,-1.69 -6.18,-3.1 -12,-7.31 -2.36,-1.71 -3.68,-2.2 -5.41,-3.88 -2.58,-2.5 -2.3,-2.87 -3.49,-4.84l-1.9 -0.36c-6.77,-3.6 -33.9,-28.92 -34.7,-33.37 -0.09,-0.51 -0.4,-0.62 -0.71,-1.45l12.31 -2.72c8.84,-1.63 23.05,-6.28 30.52,-5.52 1.96,-1.52 -0.54,-0.09 3.36,-2 0.45,-0.22 1.86,-0.81 2.33,-1l33.47 -16.04c3.8,-4.32 5.16,-3.92 9.1,-7.74 3.27,-3.18 5.3,-5.26 8.52,-8.47 6.5,-6.49 8.67,-10.04 14.62,-17.45 5.06,-12.3 9.88,-15.99 14.83,-33.33 0.36,-1.24 1,-4.29 1.57,-6.14l1.96 -4.82c0.09,-0.66 0.39,-0.8 0.64,-1.17 -1.4,-8.77 1.53,-24.27 -0.08,-36.93 -1.43,-11.27 -4.15,-22.74 -6.43,-33.81 -3.73,-18.11 -8.43,-49.58 -13.83,-64.7l-3.76 -18.46 -11.49 -56.79c6.42,-3.49 24.14,-13.06 31.08,-13.51zm118.32 -287.41c-9.08,2.41 -19.92,7.75 -26.48,11.71 -3.62,2.18 -7.79,5.1 -10.98,7.52 -4.65,3.55 -5.67,5.52 -10.41,8.13 -15.94,17.18 -32.76,37.99 -37.48,72.2 -3.57,25.83 -2.74,80.94 -1.3,108.51 -14.76,4.62 -29.65,10.14 -43.97,15.9 -10.27,4.13 -31.93,16.38 -41.02,18.15 -1.65,-4.65 -1.39,-2.28 -2.05,-6.66 -7.99,-4.9 -11.02,-12.62 -17.86,-18.12 -3.19,-2.56 -6.84,-5.65 -10.39,-8.17 -3.83,-2.72 -6.61,-3.95 -9.93,-7.23 -8.67,-3.25 -15.07,-7.7 -25.67,-11.18 -8.91,-2.93 -19.51,-4.95 -28.96,-5.38l-13.53 -0.31 -16.26 0.78 -6.09 2.44c-1.68,0.46 -4.75,0.93 -6.5,1.25l-82.02 17.36c-17.6,1.4 -71.77,13.8 -86.39,20.79 -13.55,6.48 -21.4,11.83 -31.28,21.2 -18.36,17.4 -10.64,10.87 -24.02,28.82l-3.56 4.72 -8.79 25.89c-5.79,22.42 -5.64,42.33 0,64.72 1.33,8.21 5.1,17.46 4.12,25.89l5.6 20.42c2.61,20.34 20.78,84.04 19.13,98.72 2.22,2.93 0.77,0.25 2.29,4.5 0.01,0.02 0.91,3.59 0.96,3.79 0.79,3.52 0.96,5.2 1.86,8.76 1.42,8.8 3.65,18.2 6.4,26.1 2.11,6.09 7.65,17.31 8.41,21.73 5.64,3.91 8.31,11.23 12.42,16.1 20.17,23.87 39.38,30.18 43.85,35.54 5.49,0.07 18.27,5.63 26.02,7.37 10,2.24 19.81,3.19 31.07,2.79 15.49,-0.55 47.32,-10.21 56.93,-8.76 2.04,-1.58 3.98,-3.26 8.29,-3.28 4.78,-0.02 3.98,0.68 6.37,3.65 2.75,3.42 7.55,10.33 8.63,13.54 3.22,2.71 2.72,1.47 4.45,5.34 5.14,3.83 12.93,12.92 15.36,18.28l3.93 3.92c4.83,2.5 2.72,1.43 6.46,5.1 1.77,1.74 2.83,2.77 4.85,4.38 4.61,3.66 6.65,3.52 9.18,9.87l2.66 2.25c4.62,1.37 6.17,3.18 9.81,6.31 18.26,15.72 49.26,31.66 61.29,40.96 7.28,3.34 14.82,7.86 22.27,11.41 5.11,2.43 17.87,7.2 21.84,10.5l20.08 7.88c3.76,2.25 0.83,0.29 2.86,2.06 2.68,0.04 45.26,13.62 46.82,15.04 9.41,0.93 54.53,12.64 80.26,16.4 96.29,14.07 168.23,8.8 262.71,-10.45 8.36,-1.86 16.41,-5.68 24.98,-5.36 4.19,-4.72 17.34,-6.6 23.75,-8.76 9.29,-3.12 17.02,-6.74 26.31,-8.72 2.41,-1.9 43.63,-19.5 46.52,-19.79 3.35,-4 9.16,-6.9 14.28,-8.6l38.81 -23.64c13.44,-8.44 23.36,-17.6 35.16,-26.57 15.87,-12.07 53.26,-51.48 59.48,-65.55l15.75 2.87c16.78,3.56 38.44,9.18 55.46,9.57 10.42,0.24 19.99,-0.67 29.48,-2.86 10.28,-2.38 16.83,-5.66 26.13,-7.95 0.59,-0.72 18.68,-11.35 21.73,-13.6 7.4,-5.46 12.21,-11.02 18.39,-17.12 7.84,-7.75 23.82,-30.46 25.15,-44.96 6.19,-16.02 11.7,-49.66 15.43,-68.88 2.32,-11.94 4.58,-23.05 7.16,-34.41 2.16,-9.54 3.19,-25.46 8.32,-32.36 -1.27,-9.88 8.76,-47.26 11.03,-59.48 2.01,-10.82 2.99,-21.51 1.92,-32.72 -0.93,-9.74 -5.28,-21.65 -5.05,-29.92 -3.78,-3.48 -2.71,-3.26 -4.52,-8.23 -1.52,-4.18 -2.27,-5.63 -3.73,-10.09 -3.47,-2.46 -12.75,-24.46 -36,-41.33 -3.85,-2.79 -11.24,-6.51 -13.52,-9.59 -6.21,-1.83 -18.34,-5.84 -22.27,-10.24l-48.73 -9.97c-3.67,-0.39 -6.97,-0.78 -10.6,-1.53 -1.41,-0.29 -3.56,-0.86 -4.9,-1.42 -2.47,-1.03 -1.99,-0.86 -3.42,-2.03 -10.24,1.88 -81.82,-16.27 -99.98,-19.13l-20.6 -1.89 -17.94 1.39 -21.54 4.82c-27.78,8.73 -53.41,30.11 -65.17,50.83l-15.16 -7.62c-6.17,-1.56 -12.94,-3.92 -16.77,-8.47 -5.45,-0.1 -42.82,-15.19 -52.3,-18.29 -0.99,-23.51 -0.21,-48.48 -0.25,-72.17 -0.1,-54.06 -4.48,-36.77 -7.85,-62.62 -1.08,-1.4 -0.47,-0.4 -2.09,-3.12 -3.76,-6.31 -5.21,-11.64 -10.94,-20.06l-14.89 -19.02c-2.04,-1.34 -3.32,-1.97 -5.33,-4.03 -3.61,-3.69 -1.74,0.21 -2.26,-3.81 -17.05,-8.99 -26.21,-19.3 -52.15,-25.04 -23.29,-5.15 -48.65,-3.12 -72.88,-3.16 -36.07,-0.06 -117.58,-4.08 -146.58,5.49zm109.02 -360.1c82.41,0 149.22,66.81 149.22,149.22 0,82.41 -66.81,149.22 -149.22,149.22 -82.41,0 -149.22,-66.81 -149.22,-149.22 0,-82.41 66.81,-149.22 149.22,-149.22zm544.58 209.69c82.41,0 149.22,66.81 149.22,149.22 0,82.41 -66.81,149.22 -149.22,149.22 -82.41,0 -149.22,-66.81 -149.22,-149.22 0,-82.41 66.81,-149.22 149.22,-149.22zm-1078.45 0c82.41,0 149.22,66.81 149.22,149.22 0,82.41 -66.81,149.22 -149.22,149.22 -82.41,0 -149.22,-66.81 -149.22,-149.22 0,-82.41 66.81,-149.22 149.22,-149.22z"/>
 </g>
</svg>
